<?xml version="1.0" standalone="no"?>
<!DOCTYPE svg PUBLIC "-//W3C//DTD SVG 20010904//EN"
 "http://www.w3.org/TR/2001/REC-SVG-20010904/DTD/svg10.dtd">
<svg version="1.0" xmlns="http://www.w3.org/2000/svg"
 width="1024.000000pt" height="1024.000000pt" viewBox="0 0 1024.000000 1024.000000"
 preserveAspectRatio="xMidYMid meet">

<g transform="translate(0.000000,1024.000000) scale(0.100000,-0.100000)"
fill="#000000" stroke="none">
<path d="M5068 8794 c-15 -33 -1 -58 36 -62 33 -4 56 13 56 42 0 51 -71 66
-92 20z"/>
<path d="M5088 8648 c-12 -10 -17 -38 -21 -118 -9 -205 -72 -290 -237 -320
-710 -128 -1251 -430 -1673 -935 -244 -291 -430 -653 -521 -1013 -64 -251 -71
-313 -71 -647 0 -344 7 -411 69 -650 48 -184 94 -304 196 -510 208 -418 525
-761 945 -1021 289 -178 639 -304 1000 -360 150 -23 495 -24 660 -1 490 67
992 294 1365 615 64 55 149 140 190 188 41 49 80 95 87 102 56 59 180 242 271
397 169 290 265 597 302 958 20 193 8 558 -23 737 -47 264 -119 476 -248 731
-174 343 -428 643 -751 887 -347 261 -664 402 -1118 496 -96 20 -194 46 -217
57 -87 42 -132 134 -140 292 -7 116 -24 147 -65 115z m77 -443 c17 -22 48 -51
68 -64 l38 -25 -43 -20 c-37 -18 -80 -64 -113 -121 -9 -16 -14 -13 -38 24 -15
22 -50 57 -77 78 -51 38 -61 53 -35 53 21 0 108 90 125 129 l14 34 15 -24 c9
-13 30 -42 46 -64z m-205 -239 c53 -35 88 -90 103 -162 15 -70 22 -84 47 -84
25 0 29 9 46 86 31 149 127 211 289 186 291 -45 663 -192 914 -360 440 -295
750 -669 926 -1116 43 -109 103 -311 119 -398 l7 -36 -45 0 c-57 1 -126 -38
-164 -95 -34 -49 -72 -132 -72 -156 0 -16 -28 -63 -30 -51 -9 46 -29 214 -30
242 0 20 13 77 30 127 39 119 70 285 70 373 0 239 -169 454 -242 308 -23 -45
-24 -166 -2 -260 16 -71 65 -163 113 -215 l29 -30 -20 -73 c-11 -41 -24 -70
-28 -65 -4 4 -37 82 -73 173 -83 211 -268 590 -342 700 -31 47 -90 119 -130
160 -59 60 -75 83 -80 115 -20 112 -162 245 -302 282 -76 20 -103 8 -103 -44
0 -47 39 -133 86 -190 43 -52 178 -137 244 -153 83 -20 202 -158 315 -365 26
-48 32 -65 19 -54 -45 37 -181 151 -198 167 -10 9 -32 37 -49 62 -142 206
-328 318 -514 308 -60 -3 -78 -7 -89 -23 -25 -33 -16 -70 30 -133 76 -102 183
-161 386 -211 130 -32 187 -55 235 -96 l30 -26 -60 4 c-33 3 -87 15 -120 27
-51 19 -73 21 -150 17 -97 -5 -144 -21 -194 -63 -100 -84 -56 -160 99 -171 89
-7 172 16 262 72 83 52 117 56 203 26 78 -27 159 -85 202 -143 35 -49 113
-193 113 -211 0 -5 -27 16 -61 47 -68 64 -108 87 -193 111 -108 32 -253 10
-273 -41 -23 -61 65 -172 185 -231 76 -38 76 -38 235 -44 121 -5 162 -10 173
-21 18 -18 67 -161 90 -261 22 -97 29 -382 15 -549 -7 -73 -16 -137 -20 -141
-5 -5 -12 31 -16 80 -15 186 -62 304 -159 403 -68 69 -129 102 -202 108 -46 4
-54 2 -67 -19 -51 -83 -17 -248 80 -381 41 -57 149 -140 220 -170 46 -19 55
-27 74 -72 30 -71 35 -147 14 -231 -19 -77 -73 -205 -86 -205 -5 0 -6 7 -3 15
11 28 -18 154 -50 222 -37 77 -124 166 -196 203 -53 27 -138 32 -165 10 -15
-12 -17 -25 -12 -80 14 -172 113 -315 273 -396 l74 -38 -6 -35 c-3 -20 -15
-62 -26 -95 l-21 -59 -23 69 c-18 57 -31 77 -72 115 -63 58 -122 79 -222 79
-66 0 -86 -4 -138 -31 -139 -69 -208 -215 -167 -354 30 -105 120 -166 220
-151 166 27 212 248 63 310 -53 22 -88 17 -124 -19 -44 -44 -23 -150 29 -143
19 3 22 9 20 45 -1 30 3 43 14 47 25 10 49 -2 61 -30 19 -40 14 -63 -17 -95
-24 -24 -38 -29 -76 -29 -38 0 -52 5 -75 28 -109 109 -20 304 156 343 150 34
287 -93 272 -251 -16 -168 -280 -444 -586 -612 -97 -54 -127 -83 -116 -112 11
-28 53 -18 143 33 152 85 134 81 366 84 194 2 214 4 255 24 l45 22 -64 -61
c-150 -142 -386 -296 -609 -398 -641 -291 -1369 -277 -2002 40 -174 87 -395
237 -500 338 -47 46 -74 76 -60 68 47 -28 157 -39 319 -33 l154 7 86 -47 c47
-25 103 -57 123 -71 47 -31 82 -27 86 10 3 25 -5 33 -74 75 -281 174 -454 320
-554 470 -72 108 -86 151 -72 226 13 70 31 98 90 144 139 106 362 19 387 -152
7 -47 -12 -105 -47 -142 -45 -48 -135 -38 -163 18 -19 36 -19 59 1 87 29 42
83 18 66 -29 -13 -33 -5 -49 24 -49 32 0 66 53 57 90 -13 58 -76 94 -141 79
-125 -28 -134 -217 -14 -291 45 -27 130 -30 178 -5 50 26 101 92 114 149 33
134 -37 270 -172 338 -52 25 -73 30 -136 30 -94 0 -138 -13 -198 -59 -60 -45
-82 -76 -104 -141 -17 -51 -18 -52 -30 -29 -7 13 -15 53 -18 89 l-4 66 57 28
c153 76 275 260 275 417 0 51 -3 61 -25 75 -18 12 -36 15 -66 10 -156 -25
-309 -203 -326 -379 -3 -37 -9 -70 -13 -72 -13 -8 -68 127 -85 208 -31 141 -2
234 88 282 185 100 287 220 317 373 15 74 9 142 -15 178 -15 24 -22 26 -69 22
-61 -5 -133 -39 -190 -89 -76 -68 -148 -216 -160 -332 -3 -31 -9 -83 -12 -114
-17 -164 -49 140 -41 396 6 193 17 265 63 402 35 107 42 112 162 110 179 -4
299 31 391 114 131 119 118 210 -33 222 -124 10 -251 -30 -340 -108 -25 -22
-46 -38 -46 -34 0 4 17 44 38 89 65 137 172 223 308 247 68 12 84 7 183 -56
91 -58 229 -70 333 -28 93 37 56 125 -76 184 -85 37 -228 34 -309 -8 -17 -8
-49 -13 -80 -11 l-52 3 55 37 c43 29 86 45 192 73 76 19 166 48 200 63 114 52
238 177 238 239 0 13 -11 35 -25 48 -21 22 -33 25 -94 25 -92 0 -169 -25 -268
-88 -89 -58 -163 -131 -217 -215 -20 -31 -57 -70 -83 -88 -25 -18 -79 -64
-120 -102 -40 -38 -73 -66 -73 -61 0 18 79 151 126 214 120 160 153 189 257
226 143 51 296 218 297 325 0 49 -19 63 -79 57 -131 -13 -287 -148 -321 -278
-9 -34 -31 -64 -93 -130 -101 -106 -164 -198 -245 -356 -34 -66 -175 -383
-197 -441 -7 -21 -34 -87 -59 -147 l-45 -108 -10 38 c-33 121 -34 111 10 167
89 113 126 228 116 366 -8 124 -47 171 -114 139 -34 -16 -83 -88 -115 -166
-19 -49 -22 -75 -23 -192 0 -147 12 -215 67 -375 32 -95 32 -98 2 -308 -6 -37
-24 -43 -24 -8 0 33 -80 179 -113 207 -45 38 -114 67 -148 62 -16 -3 -29 -3
-29 -2 0 2 7 35 15 74 92 435 348 878 696 1203 288 269 654 479 1011 578 237
66 355 73 428 25z m1214 -479 c53 -27 136 -123 136 -157 0 -12 -100 39 -134
69 -24 20 -76 91 -76 103 0 9 44 1 74 -15z m-2074 -10 c0 -20 -97 -110 -109
-102 -7 3 -10 1 -9 -6 3 -13 -60 -55 -69 -45 -3 3 5 27 19 53 16 33 40 59 73
81 51 33 95 42 95 19z m1965 -254 c28 -8 68 -26 90 -38 46 -27 151 -132 120
-121 -11 4 -42 11 -70 16 -100 17 -177 53 -242 113 -65 60 -29 70 102 30z
m-1830 -39 c-27 -26 -72 -56 -100 -68 -62 -28 -195 -69 -202 -63 -11 12 110
117 167 146 51 25 75 31 124 31 l61 -1 -50 -45z m-84 -386 c33 -18 37 -23 23
-31 -36 -21 -224 16 -224 43 0 28 147 19 201 -12z m2102 23 c15 -5 8 -12 -33
-31 -55 -26 -151 -33 -172 -12 -28 28 148 66 205 43z m808 -189 c22 -65 37
-192 22 -192 -47 0 -101 189 -78 277 l7 28 15 -29 c8 -16 24 -53 34 -84z
m-3843 16 c-5 -89 -33 -172 -70 -205 -20 -18 -20 -18 -16 72 4 69 12 104 33
153 41 91 59 84 53 -20z m521 -174 c17 -4 31 -12 31 -19 0 -15 -61 -58 -114
-80 -47 -20 -226 -36 -226 -20 1 17 84 74 146 100 60 25 107 30 163 19z m2918
-28 c27 -15 67 -43 89 -63 l39 -35 -99 7 c-81 5 -110 12 -157 35 -123 63 -119
92 12 86 49 -2 79 -10 116 -30z m-3705 -533 c26 -30 50 -84 44 -99 -3 -9 -1
-12 4 -9 6 3 10 -3 10 -14 0 -10 -3 -21 -7 -24 -5 -2 -2 -2 5 -1 8 3 12 -13
12 -55 0 -67 -7 -94 -23 -84 -6 4 -8 0 -4 -10 4 -11 2 -14 -7 -11 -22 8 -67
120 -73 178 -6 59 4 146 16 146 4 0 15 -8 23 -17z m4352 -41 c8 -64 -8 -143
-45 -222 l-31 -65 -14 30 c-31 71 -2 234 54 297 21 24 28 16 36 -40z m149
-282 c0 -195 -3 -255 -21 -351 -31 -168 -29 -165 -102 -172 -116 -13 -203 -68
-274 -177 -24 -36 -77 -130 -119 -210 -106 -201 -116 -216 -175 -255 -29 -20
-52 -32 -52 -29 0 4 13 28 29 53 83 130 214 373 241 449 17 48 42 132 55 187
44 183 85 261 207 395 38 41 80 94 94 117 27 45 78 186 90 249 l7 39 10 -30
c6 -17 10 -133 10 -265z m-4601 65 c15 -27 73 -112 131 -188 119 -157 154
-222 192 -357 65 -230 77 -260 184 -448 59 -103 119 -205 134 -226 14 -22 25
-42 22 -44 -2 -2 -22 6 -45 19 -49 28 -107 117 -221 339 -110 216 -192 289
-359 323 l-64 13 -13 49 c-37 143 -48 250 -47 471 1 122 5 227 9 234 5 8 16
-14 30 -61 11 -41 33 -96 47 -124z m732 48 c-1 -84 -98 -223 -195 -282 -45
-28 -49 -27 -49 13 0 106 81 245 170 292 61 33 75 28 74 -23z m3124 28 c74
-39 138 -126 163 -224 12 -49 6 -97 -12 -97 -31 0 -133 89 -180 157 -30 43
-65 155 -54 173 10 15 42 12 83 -9z m-3585 -163 c4 -73 9 -144 12 -158 4 -15
-7 -4 -29 30 -20 30 -33 61 -31 69 3 7 11 53 17 102 7 49 15 89 19 89 3 0 9
-60 12 -132z m3996 -117 c-18 -28 -34 -49 -36 -47 -3 2 0 36 6 75 6 38 11 94
11 123 0 108 13 109 32 1 l18 -101 -31 -51z m-3432 -346 c-13 -82 -109 -208
-197 -259 l-32 -18 7 43 c8 50 44 135 76 181 26 35 104 88 132 88 17 0 19 -5
14 -35z m2896 24 c46 -25 96 -71 120 -112 29 -50 44 -92 29 -83 -6 4 -8 -2 -5
-15 4 -14 8 -17 13 -9 4 7 10 -3 14 -25 4 -20 5 -39 2 -42 -7 -8 -95 50 -135
89 -37 36 -76 112 -86 171 -8 41 5 48 48 26z m-3504 -278 c26 -27 63 -80 82
-118 19 -37 36 -70 40 -73 14 -13 96 -160 89 -160 -4 0 -30 15 -56 33 -27 19
-63 41 -79 50 -104 54 -218 251 -175 302 22 26 50 16 99 -34z m4167 24 c10
-41 -56 -202 -78 -189 -7 4 -8 3 -4 -4 11 -19 -72 -97 -146 -136 -36 -20 -68
-36 -71 -36 -3 0 26 60 63 133 101 198 216 311 236 232z m-4034 -435 c14 0
214 -98 288 -141 63 -36 102 -70 183 -155 l38 -40 -88 29 c-106 36 -230 41
-300 12 l-42 -17 -26 29 c-62 70 -205 296 -240 379 -13 31 -11 30 82 -32 53
-35 100 -64 105 -64z m3963 40 c-31 -61 -161 -261 -213 -329 l-19 -24 -54 18
c-95 32 -257 17 -351 -31 -49 -25 -30 1 61 88 96 92 170 135 378 223 62 25
138 64 170 85 32 21 59 39 61 39 1 1 -14 -30 -33 -69z m-3543 -435 c47 -16
117 -68 107 -79 -9 -10 -190 33 -223 52 -16 10 -31 23 -34 30 -6 18 94 16 150
-3z m3088 6 c0 -20 -69 -61 -126 -75 -89 -21 -124 -26 -124 -17 0 21 81 74
140 92 36 11 110 11 110 0z m-299 -30 c-12 -22 -72 -74 -78 -67 -4 3 77 85 85
86 1 0 -2 -9 -7 -19z m-2556 -46 c17 -14 25 -25 18 -25 -7 0 -25 11 -40 25
-36 32 -17 32 22 0z"/>
<path d="M5385 7827 c-20 -16 -17 -56 7 -70 12 -8 21 -7 32 2 38 32 1 96 -39
68z"/>
<path d="M4787 7823 c-14 -13 -6 -53 12 -63 38 -20 71 13 51 51 -10 18 -50 26
-63 12z"/>
<path d="M5080 7641 c-5 -11 -10 -83 -10 -161 l0 -140 -27 -11 c-100 -36 -172
-99 -213 -185 l-31 -64 -140 0 c-78 0 -149 -5 -160 -10 -11 -6 -19 -21 -19
-35 0 -14 8 -29 19 -35 11 -5 83 -10 160 -10 84 0 141 -4 141 -10 0 -33 49
-131 86 -170 41 -44 135 -100 168 -100 14 0 16 -31 18 -236 3 -213 5 -238 21
-248 12 -8 22 -8 35 0 15 10 18 36 22 242 3 127 7 233 10 235 3 3 30 16 61 30
97 43 152 106 188 220 l13 37 132 0 c153 0 196 10 196 46 0 13 -9 28 -19 34
-11 5 -84 10 -166 10 -130 0 -146 2 -152 18 -33 99 -95 169 -191 215 l-67 33
-5 144 c-3 80 -9 151 -13 158 -12 18 -45 14 -57 -7z m115 -450 c16 -9 44 -36
62 -59 128 -169 -77 -386 -251 -265 -98 68 -112 196 -33 287 55 63 147 79 222
37z"/>
<path d="M5215 6952 c3 -3 -2 -14 -12 -24 -9 -10 -11 -18 -6 -18 6 0 18 11 26
23 13 20 13 24 1 24 -8 0 -12 -3 -9 -5z"/>
<path d="M4616 7574 c-22 -22 -20 -41 8 -59 29 -19 54 -10 63 23 10 42 -40 68
-71 36z"/>
<path d="M5548 7579 c-28 -16 -23 -57 8 -71 23 -11 29 -10 45 11 23 28 23 35
3 55 -18 18 -32 20 -56 5z"/>
<path d="M4867 7409 c-22 -13 -22 -42 1 -62 23 -21 36 -21 52 -2 26 31 -17 83
-53 64z"/>
<path d="M5306 7405 c-21 -21 -21 -64 0 -72 10 -3 26 4 42 21 22 21 25 30 16
44 -15 23 -38 26 -58 7z"/>
<path d="M4861 6681 c-31 -56 6 -93 46 -47 30 35 26 60 -9 64 -18 2 -30 -3
-37 -17z"/>
<path d="M5307 6693 c-14 -13 -7 -50 13 -68 37 -34 66 6 40 56 -10 19 -40 26
-53 12z"/>
<path d="M5703 6672 c-6 -4 -14 -32 -18 -62 -13 -96 -26 -111 -108 -126 -68
-12 -59 -54 11 -54 54 0 89 -43 98 -119 3 -34 11 -64 16 -67 18 -11 38 19 38
58 0 83 38 128 109 128 29 0 57 22 47 38 -3 5 -30 14 -61 21 -67 15 -89 43
-100 127 -7 56 -13 67 -32 56z"/>
<path d="M4497 6663 c-4 -3 -7 -18 -7 -32 0 -41 -20 -101 -39 -120 -10 -10
-39 -21 -64 -25 -55 -8 -78 -29 -48 -45 11 -6 29 -11 41 -11 35 0 76 -27 88
-57 6 -15 13 -50 17 -76 4 -28 12 -50 21 -54 21 -8 25 -1 33 64 4 32 13 68 19
80 11 21 65 43 103 43 20 0 43 26 35 39 -3 5 -25 12 -49 16 -77 13 -99 39
-112 138 -6 43 -20 59 -38 40z"/>
<path d="M3950 6305 c-6 -14 -10 -32 -10 -40 0 -30 -14 -45 -46 -51 -18 -3
-38 -12 -45 -20 -9 -11 -5 -17 24 -29 20 -8 41 -15 46 -15 5 0 13 -21 18 -47
11 -62 34 -64 46 -4 8 38 13 45 48 59 48 18 48 42 2 56 -26 7 -35 16 -43 45
-5 20 -10 41 -10 48 0 25 -20 23 -30 -2z m18 -125 c3 -7 0 -10 -7 -6 -6 4 -11
1 -11 -6 0 -10 -3 -9 -9 2 -6 8 -7 18 -4 23 7 11 26 4 31 -13z"/>
<path d="M6240 6280 c-13 -54 -23 -66 -60 -72 -41 -5 -37 -34 7 -48 45 -15 53
-25 53 -68 0 -21 6 -35 16 -39 21 -8 34 14 34 58 0 35 2 37 40 43 66 10 64 55
-1 56 -23 0 -28 7 -44 60 -10 33 -22 60 -26 60 -4 0 -12 -22 -19 -50z"/>
<path d="M3444 6115 c-3 -19 -11 -35 -18 -34 -40 5 -53 -27 -14 -33 13 -2 24
-11 27 -23 3 -19 18 -35 33 -35 4 0 8 15 10 33 2 27 8 33 31 35 35 4 31 26 -6
30 -19 2 -27 10 -29 29 -5 41 -26 39 -34 -2z"/>
<path d="M6735 6121 c-5 -22 -14 -33 -31 -37 -25 -6 -28 -28 -6 -30 7 -1 17
-2 22 -3 6 0 10 -9 10 -19 0 -19 18 -42 32 -42 4 0 8 16 8 35 0 32 2 35 31 35
38 0 35 24 -4 28 -19 2 -27 10 -29 29 -4 38 -25 40 -33 4z m0 -51 c3 -5 1 -10
-4 -10 -6 0 -11 5 -11 10 0 6 2 10 4 10 3 0 8 -4 11 -10z"/>
<path d="M4322 6040 c-127 -4 -145 -7 -158 -24 -24 -33 -17 -74 20 -120 47
-57 52 -71 91 -296 46 -263 72 -336 167 -465 98 -133 216 -210 460 -299 54
-20 98 -66 98 -103 0 -17 -19 -43 -63 -86 -75 -72 -104 -139 -93 -213 8 -60
24 -89 89 -157 31 -32 58 -70 62 -86 15 -69 -41 -200 -110 -256 -44 -37 -139
-86 -200 -105 -151 -47 -254 -147 -255 -247 0 -66 -25 -63 690 -61 l644 3 15
26 c12 22 13 33 1 75 -21 74 -94 143 -195 183 -211 86 -273 126 -317 207 -64
117 -59 197 16 260 63 53 90 105 90 179 0 79 -23 125 -98 197 l-60 57 12 39
c17 54 36 69 157 112 220 80 344 184 458 385 58 102 71 149 107 379 31 194 41
226 94 275 32 30 35 87 7 122 l-19 24 -784 0 c-430 0 -848 -2 -926 -5z m1379
-107 c184 -6 186 -6 181 -28 l-4 -22 -450 -6 c-248 -4 -592 -7 -765 -7 l-313
0 -10 26 c-6 14 -10 30 -10 35 0 10 1080 13 1371 2z m17 -180 l122 -6 -7 -26
c-9 -38 -20 -42 -103 -40 -41 1 -139 2 -217 1 -117 -2 -141 -4 -137 -16 3 -8
1 -17 -5 -21 -6 -3 -11 -19 -11 -36 0 -23 -5 -29 -22 -31 -13 -1 45 -5 128 -8
l152 -5 -12 -35 c-11 -33 -12 -34 -61 -33 -30 0 -37 -1 -17 -4 26 -3 32 -9 32
-29 0 -14 4 -22 10 -19 14 9 12 -1 -6 -37 -12 -23 -18 -28 -24 -17 -5 7 -12
10 -16 6 -4 -3 -1 -13 6 -22 7 -9 10 -18 6 -22 -3 -3 -6 -1 -6 6 0 7 -5 9 -10
6 -6 -4 -8 -16 -4 -27 5 -17 3 -19 -16 -13 -21 7 -22 5 -17 -21 4 -16 4 -23 1
-16 -3 6 -12 12 -20 12 -14 0 -18 -10 -15 -42 1 -9 -2 -19 -8 -22 -5 -4 -7 3
-3 16 5 21 4 22 -11 9 -12 -9 -15 -21 -11 -35 4 -12 3 -18 -1 -14 -3 3 -15 -2
-26 -13 -11 -11 -25 -16 -35 -12 -13 5 -15 3 -9 -7 5 -9 4 -11 -3 -6 -12 7
-23 0 -68 -41 -29 -27 -30 -38 -5 -60 11 -9 18 -20 15 -25 -3 -4 0 -8 5 -8 6
0 11 -7 11 -16 0 -9 7 -22 16 -29 28 -20 -92 -40 -231 -39 -103 1 -131 5 -200
28 -218 74 -382 237 -439 436 -13 45 -56 300 -56 331 0 10 1145 12 1328 2z
m-303 -93 c3 -5 -1 -10 -9 -10 -9 0 -16 5 -16 10 0 6 4 10 9 10 6 0 13 -4 16
-10z m-8 -62 c-3 -7 -5 -2 -5 12 0 14 2 19 5 13 2 -7 2 -19 0 -25z m398 -31
c-2 -7 -13 -51 -24 -98 -11 -47 -31 -110 -45 -140 -26 -57 -80 -126 -96 -122
-5 2 -7 -3 -4 -10 6 -16 -79 -97 -101 -97 -9 0 -14 -4 -11 -8 6 -11 -51 -45
-63 -37 -5 3 -16 -4 -24 -15 -12 -18 -15 -18 -35 -4 -12 8 -22 11 -22 6 0 -6
8 -13 18 -17 14 -5 11 -9 -17 -21 -37 -15 -51 -12 -51 15 0 9 -6 23 -12 30
-11 10 -7 11 17 6 19 -4 25 -3 17 3 -9 6 -2 13 25 26 21 9 42 16 47 16 5 -1
12 2 15 7 3 4 22 20 43 35 31 23 37 25 42 12 5 -13 9 -14 20 -5 11 9 15 9 20
-1 3 -7 3 -2 0 12 -10 40 -10 44 3 45 26 1 50 27 45 50 -2 15 3 27 17 37 12 9
23 25 26 36 2 11 8 29 13 39 5 10 17 52 27 93 26 112 29 118 67 122 40 4 48 1
43 -15z m-215 -97 c0 -5 -2 -10 -4 -10 -3 0 -8 5 -11 10 -3 6 -1 10 4 10 6 0
11 -4 11 -10z m0 -244 c0 -3 -4 -8 -10 -11 -5 -3 -10 -1 -10 4 0 6 5 11 10 11
6 0 10 -2 10 -4z m-40 -60 c0 -3 -4 -8 -10 -11 -5 -3 -10 -1 -10 4 0 6 5 11
10 11 6 0 10 -2 10 -4z m-385 -590 c40 -17 69 -58 62 -86 -3 -11 -1 -20 5 -20
5 0 3 -7 -6 -15 -8 -8 -20 -15 -26 -15 -6 0 -25 -16 -42 -35 -17 -20 -33 -33
-36 -30 -3 2 -15 -6 -27 -19 -26 -28 -47 -22 -90 24 -72 75 -14 207 93 209 18
1 48 -5 67 -13z m69 -721 c29 -29 82 -66 124 -87 41 -20 70 -38 65 -40 -4 -3
-2 -3 5 -1 28 7 64 -9 59 -27 -4 -17 17 -21 40 -7 6 4 21 -1 32 -11 22 -17 21
-17 -31 -15 -45 3 -49 1 -28 -8 14 -5 33 -8 42 -5 10 2 18 0 18 -5 0 -5 -200
-9 -481 -9 -314 0 -478 3 -474 10 10 17 87 57 160 85 171 64 277 159 321 290
l16 44 41 -82 c25 -51 60 -101 91 -132z"/>
<path d="M5711 5454 c0 -11 3 -14 6 -6 3 7 2 16 -1 19 -3 4 -6 -2 -5 -13z"/>
<path d="M5624 5279 c-3 -6 -2 -15 3 -20 5 -5 9 -1 9 11 0 23 -2 24 -12 9z"/>
<path d="M5594 5158 l-19 -23 23 19 c21 18 27 26 19 26 -2 0 -12 -10 -23 -22z"/>
<path d="M5506 5127 c3 -10 9 -15 12 -12 3 3 0 11 -7 18 -10 9 -11 8 -5 -6z"/>
<path d="M6230 5545 c-13 -45 -37 -69 -84 -81 -17 -4 -26 -13 -26 -26 0 -15 5
-19 20 -15 11 3 18 1 15 -3 -3 -5 10 -12 30 -16 30 -5 35 -10 35 -34 0 -40 18
-82 32 -78 7 3 17 26 23 53 10 46 12 49 58 62 62 18 66 47 7 63 -43 12 -70 41
-70 78 0 13 -4 20 -10 17 -6 -3 -7 1 -4 9 3 9 2 16 -4 16 -5 0 -15 -20 -22
-45z"/>
<path d="M3974 5538 c-33 -36 -35 -44 -19 -74 17 -33 20 -90 5 -99 -10 -6 -7
-61 4 -72 12 -12 36 8 36 31 0 43 21 75 54 82 39 8 56 22 55 43 0 14 -1 14 -7
1 -10 -21 -61 -25 -68 -5 -3 8 -14 15 -23 15 -13 0 -13 2 -2 9 11 7 11 15 0
50 l-14 42 -21 -23z"/>
<path d="M3888 5463 c7 -3 16 -2 19 1 4 3 -2 6 -13 5 -11 0 -14 -3 -6 -6z"/>
<path d="M3840 5436 c0 -3 9 -10 20 -16 11 -6 20 -8 20 -6 0 3 -9 10 -20 16
-11 6 -20 8 -20 6z"/>
<path d="M3927 5389 c12 -12 25 -20 28 -17 3 3 -7 13 -22 23 l-28 17 22 -23z"/>
<path d="M3925 5050 c-26 -29 -24 -79 4 -102 48 -38 114 -8 114 52 0 61 -78
94 -118 50z"/>
<path d="M6196 5049 c-31 -25 -33 -57 -5 -93 41 -53 119 -21 119 48 0 61 -63
85 -114 45z"/>
<path d="M5730 4346 c-9 -46 -16 -56 -41 -66 -27 -12 -28 -14 -14 -30 8 -9 12
-20 8 -24 -4 -3 3 -13 15 -22 13 -9 24 -30 28 -54 4 -22 13 -45 20 -51 8 -6
14 -10 15 -8 0 2 6 28 12 58 11 49 15 56 47 66 34 12 34 13 10 18 -17 4 -13 5
12 4 21 -1 37 3 35 8 -1 6 -6 10 -12 11 -5 0 -25 9 -43 20 -24 14 -36 32 -49
72 -9 28 -20 52 -24 52 -4 0 -13 -24 -19 -54z"/>
<path d="M4486 4365 c4 -10 2 -14 -7 -10 -10 4 -20 -10 -32 -44 -12 -35 -23
-50 -39 -54 -13 -2 -32 -8 -43 -12 -16 -5 -17 -5 -5 4 13 9 13 11 -2 11 -21 0
-24 -28 -4 -36 7 -3 29 -6 48 -7 19 -1 35 -6 36 -12 3 -34 30 -109 39 -112 7
-3 17 15 23 39 17 64 23 71 66 83 48 13 57 40 18 56 -16 5 -39 8 -51 4 -13 -3
-23 -1 -23 5 0 6 4 9 10 5 5 -3 3 7 -5 22 -8 15 -15 36 -15 45 0 9 -4 20 -10
23 -6 3 -7 -1 -4 -10z"/>
<path d="M5636 4231 c-3 -4 6 -6 19 -3 14 2 25 6 25 8 0 8 -39 4 -44 -5z"/>
<path d="M6728 6373 c7 -3 16 -2 19 1 4 3 -2 6 -13 5 -11 0 -14 -3 -6 -6z"/>
<path d="M6840 5494 c0 -8 5 -12 10 -9 6 4 8 11 5 16 -9 14 -15 11 -15 -7z"/>
<path d="M6684 8015 c-8 -21 3 -45 20 -45 23 0 28 16 9 31 -10 8 -14 9 -10 2
4 -6 3 -14 -3 -18 -5 -3 -10 3 -10 14 0 10 6 22 13 24 9 4 9 6 -1 6 -7 1 -15
-6 -18 -14z"/>
<path d="M3540 7996 c0 -9 5 -16 10 -16 6 0 10 4 10 9 0 6 -4 13 -10 16 -5 3
-10 -1 -10 -9z"/>
<path d="M3124 7862 c-19 -13 -23 -39 -8 -61 19 -26 36 -27 59 -1 33 36 -11
90 -51 62z"/>
<path d="M2820 7407 c-75 -38 -28 -154 54 -133 30 7 60 58 51 86 -7 21 -51 60
-69 60 -6 0 -22 -6 -36 -13z"/>
<path d="M7290 7391 c-25 -47 4 -111 50 -111 50 0 79 79 42 113 -26 24 -79 22
-92 -2z"/>
<path d="M7684 7085 c-8 -20 4 -35 26 -35 25 0 35 17 20 35 -16 19 -39 19 -46
0z"/>
<path d="M2470 7060 c0 -28 3 -31 28 -28 21 2 27 8 27 28 0 20 -6 26 -27 28
-25 3 -28 0 -28 -28z"/>
<path d="M2630 2335 c-16 -19 -15 -428 1 -457 14 -27 55 -23 75 7 14 22 16 43
10 135 -4 65 -2 110 3 110 5 0 57 -57 116 -127 111 -132 142 -157 169 -133 14
10 16 45 16 226 0 201 -1 215 -20 234 -24 24 -29 24 -58 4 -21 -14 -22 -22
-22 -135 0 -65 -3 -119 -7 -119 -5 0 -42 41 -83 92 -147 181 -170 199 -200
163z"/>
<path d="M3227 2343 c-90 -6 -91 -11 -84 -254 4 -132 10 -205 18 -215 9 -11
43 -14 153 -14 149 0 166 5 166 45 0 38 -19 45 -128 45 l-103 0 3 48 3 47 75
3 c81 3 100 12 100 48 0 33 -28 44 -109 44 l-71 0 0 55 0 55 96 0 c108 0 134
9 134 47 0 51 -42 59 -253 46z"/>
<path d="M3734 2339 c-17 -5 -51 -27 -76 -49 -141 -123 -112 -328 58 -411 54
-27 72 -31 118 -27 112 9 195 80 151 128 -23 25 -50 25 -82 0 -57 -45 -140
-34 -192 25 -41 47 -49 95 -25 154 37 87 149 118 226 61 29 -21 34 -22 57 -9
35 20 38 45 9 76 -50 55 -156 78 -244 52z"/>
<path d="M4186 2343 c-96 -4 -116 -12 -116 -47 0 -35 20 -46 81 -46 l56 0 7
-46 c3 -26 6 -108 6 -183 0 -145 5 -161 46 -161 47 0 54 30 54 217 l0 173 63
0 c36 0 68 5 75 12 18 18 15 53 -6 71 -19 18 -36 18 -266 10z"/>
<path d="M4656 2328 c-37 -58 -186 -391 -186 -416 0 -35 20 -55 52 -50 16 2
32 19 51 56 l28 52 92 0 92 -1 30 -52 c20 -35 37 -53 53 -55 30 -4 52 14 52
43 0 27 -185 426 -203 437 -22 14 -46 8 -61 -14z m65 -205 c13 -32 26 -61 27
-65 2 -4 -21 -8 -52 -8 -31 0 -56 3 -56 7 0 14 45 123 51 123 3 0 16 -26 30
-57z"/>
<path d="M5052 2334 c-22 -15 -22 -20 -22 -222 0 -226 6 -252 55 -252 33 0 39
14 45 95 5 73 3 71 54 66 8 0 31 -25 51 -55 68 -103 120 -133 146 -85 10 19 5
31 -40 95 -44 63 -48 74 -32 79 34 10 72 62 78 103 11 81 -42 159 -124 181
-59 17 -185 14 -211 -5z m216 -104 c13 -12 22 -33 22 -50 0 -47 -33 -70 -102
-70 l-58 0 0 70 0 70 58 0 c45 0 63 -5 80 -20z"/>
<path d="M5525 2333 c-15 -15 -17 -40 -13 -224 3 -186 5 -209 22 -228 11 -12
27 -21 36 -21 34 0 40 21 40 148 0 75 4 122 10 120 5 -1 57 -59 116 -128 111
-130 141 -153 168 -130 14 10 16 45 16 224 0 225 -6 256 -50 256 -42 0 -50
-25 -50 -151 0 -65 -4 -119 -9 -119 -5 0 -59 61 -121 135 -114 138 -132 151
-165 118z"/>
<path d="M6152 2324 c-92 -46 -132 -116 -132 -230 0 -132 116 -244 250 -244
100 0 183 59 230 162 52 114 -11 263 -133 319 -63 28 -150 25 -215 -7z m186
-94 c100 -61 94 -208 -11 -259 -24 -12 -52 -21 -63 -21 -28 0 -94 41 -118 73
-27 37 -28 120 -1 161 43 64 129 85 193 46z"/>
<path d="M6731 2324 c-166 -83 -176 -324 -18 -431 84 -56 190 -56 274 0 160
108 146 339 -26 429 -73 38 -155 39 -230 2z m187 -94 c103 -63 94 -214 -15
-262 -58 -25 -103 -16 -153 31 -45 42 -59 93 -41 150 25 86 133 127 209 81z"/>
<path d="M7212 2338 c-9 -9 -12 -72 -12 -223 0 -229 6 -255 55 -255 32 0 45
27 45 88 0 53 30 107 48 87 5 -5 42 -47 81 -92 59 -68 77 -83 101 -83 19 0 33
7 40 21 14 25 -8 60 -103 164 l-65 70 84 88 c46 48 84 94 84 102 0 20 -28 45
-51 45 -11 0 -57 -40 -111 -95 -50 -52 -95 -95 -100 -95 -4 0 -8 35 -8 78 0
64 -4 82 -18 95 -22 20 -53 22 -70 5z"/>
</g>
</svg>
